# xmcd CD database file
#
# Track frame offsets:
#	150
#	13187
#	29237
#	46112
#	62762
#	79112
#	91112
#	98387
#	115862
#	125387
#	141662
#	153962
#	163487
#	176987
#
# Disc length: 2523 seconds
#
# Revision: 1
# Processed by: cddbd v1.5.2PL0 Copyright (c) Steve Scherf et al.
# Submitted via: CDex 1.70beta2
#
DISCID=bc09d90e
DTITLE=Bohnsack,Jo - Boogie In A Nice Place
DYEAR=1991
DGENRE=Blues
TTITLE0=Traveling Mood
TTITLE1=Boogie In A Nice Place
TTITLE2=Help Me
TTITLE3=Rock House
TTITLE4=Otis' Blues
TTITLE5=Walking On Rampart Street
TTITLE6=Prelude Blues- F majeur
TTITLE7=Keep On Going
TTITLE8=Fast'n Boogie
TTITLE9=Yellow Key
TTITLE10=(Get Your Kicks) On Route 66
TTITLE11=Girls Like It
TTITLE12=Pinetop's Boogie Woogie
TTITLE13=The Crowd Is Gone (Ja Foule Est Partie)
EXTD=YEAR: 1991
EXTT0=
EXTT1=
EXTT2=
EXTT3=
EXTT4=
EXTT5=
EXTT6=
EXTT7=
EXTT8=
EXTT9=
EXTT10=
EXTT11=
EXTT12=
EXTT13=
PLAYORDER=
